<svg width="32" height="32" viewBox="0 0 32 32" fill="none" xmlns="http://www.w3.org/2000/svg">
<rect width="32" height="32" rx="1.25" fill="#BBF7D0"/>
<g clip-path="url(#clip0_98_2)">
<path d="M22.2451 5.45494C22.5401 4.76994 22.3201 3.96994 21.7151 3.52994C21.1101 3.08994 20.2851 3.12994 19.7201 3.61994L6.92012 14.8199C6.42012 15.2599 6.24012 15.9649 6.47512 16.5849C6.71012 17.2049 7.31012 17.6249 7.97512 17.6249H13.5501L9.70512 26.5949C9.41012 27.2799 9.63012 28.0799 10.2351 28.5199C10.8401 28.9599 11.6651 28.9199 12.2301 28.4299L25.0301 17.2299C25.5301 16.7899 25.7101 16.0849 25.4751 15.4649C25.2401 14.8449 24.6451 14.4299 23.9751 14.4299H18.4001L22.2451 5.45494Z" fill="#22C55E"/>
</g>
<defs>
<clipPath id="clip0_98_2">
<rect width="22.4" height="25.6" fill="white" transform="translate(4.7749 3.22498)"/>
</clipPath>
</defs>
</svg>
