<svg width="569" height="128" viewBox="0 0 569 128" fill="none" xmlns="http://www.w3.org/2000/svg">
<path d="M112.7 99V89.4H122.1V38.6H112.7V29H148.2C152.4 29 156.067 29.7333 159.2 31.2C162.333 32.6 164.767 34.6333 166.5 37.3C168.3 39.9 169.2 43 169.2 46.6V47.6C169.2 50.8 168.6 53.4333 167.4 55.5C166.2 57.5667 164.733 59.1667 163 60.3C161.333 61.4333 159.733 62.2333 158.2 62.7V64.3C159.733 64.7 161.367 65.5 163.1 66.7C164.9 67.8333 166.4 69.4333 167.6 71.5C168.867 73.5667 169.5 76.2667 169.5 79.6V80.6C169.5 84.4667 168.6 87.7667 166.8 90.5C165 93.2333 162.5 95.3333 159.3 96.8C156.167 98.2667 152.533 99 148.4 99H112.7ZM133 89.2H147.1C150.7 89.2 153.533 88.3333 155.6 86.6C157.667 84.8667 158.7 82.4667 158.7 79.4V78.5C158.7 75.4333 157.667 73.0333 155.6 71.3C153.6 69.5667 150.767 68.7 147.1 68.7H133V89.2ZM133 58.8H147.1C150.5 58.8 153.233 57.9667 155.3 56.3C157.367 54.5667 158.4 52.2333 158.4 49.3V48.3C158.4 45.3667 157.367 43.0667 155.3 41.4C153.3 39.6667 150.567 38.8 147.1 38.8H133V58.8ZM181.909 99V29H192.209V99H181.909ZM230.595 100.4C225.661 100.4 221.261 99.4 217.395 97.4C213.595 95.3333 210.595 92.4 208.395 88.6C206.195 84.8 205.095 80.3 205.095 75.1V73.6C205.095 68.4 206.195 63.9333 208.395 60.2C210.595 56.4 213.595 53.4667 217.395 51.4C221.261 49.3333 225.661 48.3 230.595 48.3C235.528 48.3 239.928 49.3333 243.795 51.4C247.661 53.4667 250.695 56.4 252.895 60.2C255.095 63.9333 256.195 68.4 256.195 73.6V75.1C256.195 80.3 255.095 84.8 252.895 88.6C250.695 92.4 247.661 95.3333 243.795 97.4C239.928 99.4 235.528 100.4 230.595 100.4ZM230.595 91.2C235.128 91.2 238.795 89.7667 241.595 86.9C244.461 83.9667 245.895 79.9333 245.895 74.8V73.9C245.895 68.7667 244.495 64.7667 241.695 61.9C238.895 58.9667 235.195 57.5 230.595 57.5C226.128 57.5 222.461 58.9667 219.595 61.9C216.795 64.7667 215.395 68.7667 215.395 73.9V74.8C215.395 79.9333 216.795 83.9667 219.595 86.9C222.461 89.7667 226.128 91.2 230.595 91.2ZM266.618 74.6V73.1C266.618 67.9 267.651 63.4667 269.718 59.8C271.851 56.1333 274.651 53.3 278.118 51.3C281.585 49.3 285.385 48.3 289.518 48.3C294.318 48.3 297.985 49.2 300.518 51C303.118 52.8 305.018 54.7333 306.218 56.8H307.818V49.7H317.818V109.1C317.818 112.1 316.918 114.5 315.118 116.3C313.385 118.1 310.985 119 307.918 119H274.718V110H304.718C306.651 110 307.618 109 307.618 107V91.3H306.018C305.285 92.5 304.251 93.7333 302.918 95C301.585 96.2667 299.818 97.3 297.618 98.1C295.485 98.9 292.785 99.3 289.518 99.3C285.385 99.3 281.551 98.3333 278.018 96.4C274.551 94.4 271.785 91.5667 269.718 87.9C267.651 84.1667 266.618 79.7333 266.618 74.6ZM292.318 90.3C296.785 90.3 300.451 88.9 303.318 86.1C306.251 83.2333 307.718 79.3 307.718 74.3V73.4C307.718 68.2667 306.285 64.3333 303.418 61.6C300.551 58.8 296.851 57.4 292.318 57.4C287.918 57.4 284.251 58.8 281.318 61.6C278.451 64.3333 277.018 68.2667 277.018 73.4V74.3C277.018 79.3 278.451 83.2333 281.318 86.1C284.251 88.9 287.918 90.3 292.318 90.3ZM356.483 100.4C351.216 100.4 346.549 99.4667 342.483 97.6C338.416 95.7333 335.216 93 332.883 89.4C330.616 85.7333 329.483 81.3 329.483 76.1V73.6H340.183V76.1C340.183 81.0333 341.649 84.7333 344.583 87.2C347.583 89.6667 351.549 90.9 356.483 90.9C361.483 90.9 365.249 89.8667 367.783 87.8C370.316 85.6667 371.583 82.9333 371.583 79.6C371.583 77.4 370.983 75.6 369.783 74.2C368.583 72.8 366.883 71.7 364.683 70.9C362.483 70.0333 359.849 69.2333 356.783 68.5L353.083 67.6C348.616 66.5333 344.716 65.2333 341.383 63.7C338.116 62.1 335.583 60 333.783 57.4C331.983 54.8 331.083 51.4667 331.083 47.4C331.083 43.2667 332.083 39.7333 334.083 36.8C336.149 33.8667 338.983 31.6 342.583 30C346.183 28.4 350.416 27.6 355.283 27.6C360.149 27.6 364.483 28.4333 368.283 30.1C372.149 31.7667 375.183 34.2333 377.383 37.5C379.583 40.7667 380.683 44.8667 380.683 49.8V53.4H369.983V49.8C369.983 46.8 369.349 44.3667 368.083 42.5C366.883 40.6333 365.183 39.2667 362.983 38.4C360.783 37.5333 358.216 37.1 355.283 37.1C351.016 37.1 347.683 38 345.283 39.8C342.949 41.5333 341.783 43.9667 341.783 47.1C341.783 49.2333 342.283 51 343.283 52.4C344.349 53.7333 345.883 54.8333 347.883 55.7C349.883 56.5667 352.383 57.3333 355.383 58L359.083 58.9C363.616 59.9 367.616 61.2 371.083 62.8C374.549 64.3333 377.283 66.4333 379.283 69.1C381.283 71.7667 382.283 75.2 382.283 79.4C382.283 83.6 381.216 87.2667 379.083 90.4C377.016 93.5333 374.049 96 370.183 97.8C366.316 99.5333 361.749 100.4 356.483 100.4ZM399.62 119V110H427.12C428.987 110 429.92 109 429.92 107V91.8H428.32C427.72 93.1333 426.787 94.4333 425.52 95.7C424.32 96.9 422.687 97.9 420.62 98.7C418.554 99.5 415.954 99.9 412.82 99.9C409.087 99.9 405.754 99.0667 402.82 97.4C399.887 95.7333 397.587 93.3667 395.92 90.3C394.254 87.2333 393.42 83.6 393.42 79.4V49.7H403.72V78.6C403.72 82.8667 404.787 86.0333 406.92 88.1C409.054 90.1 412.02 91.1 415.82 91.1C420.02 91.1 423.387 89.7 425.92 86.9C428.52 84.1 429.82 80.0333 429.82 74.7V49.7H440.12V109.1C440.12 112.1 439.22 114.5 437.42 116.3C435.687 118.1 433.287 119 430.22 119H399.62ZM455.346 99V49.7H465.446V57.1H467.046C467.979 55.1 469.646 53.2333 472.046 51.5C474.446 49.7667 478.013 48.9 482.746 48.9C486.479 48.9 489.779 49.7333 492.646 51.4C495.579 53.0667 497.879 55.4333 499.546 58.5C501.213 61.5 502.046 65.1333 502.046 69.4V99H491.746V70.2C491.746 65.9333 490.679 62.8 488.546 60.8C486.413 58.7333 483.479 57.7 479.746 57.7C475.479 57.7 472.046 59.1 469.446 61.9C466.913 64.7 465.646 68.7667 465.646 74.1V99H455.346ZM539.77 100.4C535.036 100.4 530.736 99.4 526.87 97.4C523.07 95.4 520.036 92.5 517.77 88.7C515.57 84.9 514.47 80.3333 514.47 75V73.7C514.47 68.3667 515.57 63.8333 517.77 60.1C520.036 56.3 523.07 53.4 526.87 51.4C530.736 49.3333 535.036 48.3 539.77 48.3C544.503 48.3 548.536 49.1667 551.87 50.9C555.203 52.6333 557.87 54.9333 559.87 57.8C561.936 60.6667 563.27 63.8333 563.87 67.3L553.87 69.4C553.536 67.2 552.836 65.2 551.77 63.4C550.703 61.6 549.203 60.1667 547.27 59.1C545.336 58.0333 542.903 57.5 539.97 57.5C537.103 57.5 534.503 58.1667 532.17 59.5C529.903 60.7667 528.103 62.6333 526.77 65.1C525.436 67.5 524.77 70.4333 524.77 73.9V74.8C524.77 78.2667 525.436 81.2333 526.77 83.7C528.103 86.1667 529.903 88.0333 532.17 89.3C534.503 90.5667 537.103 91.2 539.97 91.2C544.303 91.2 547.603 90.1 549.87 87.9C552.136 85.6333 553.57 82.7667 554.17 79.3L564.17 81.6C563.37 85 561.936 88.1333 559.87 91C557.87 93.8667 555.203 96.1667 551.87 97.9C548.536 99.5667 544.503 100.4 539.77 100.4Z" fill="white"/>
<g clip-path="url(#clip0_60_20)">
<path d="M69.8801 24.9199C71.0601 22.1799 70.1801 18.9799 67.7601 17.2199C65.3401 15.4599 62.0401 15.6199 59.7801 17.5799L8.58014 62.3799C6.58014 64.1399 5.86014 66.9599 6.80014 69.4399C7.74014 71.9199 10.1401 73.5999 12.8001 73.5999H35.1001L19.7201 109.48C18.5401 112.22 19.4201 115.42 21.8401 117.18C24.2601 118.94 27.5601 118.78 29.8201 116.82L81.0201 72.0199C83.0201 70.2599 83.7401 67.4399 82.8001 64.9599C81.8601 62.4799 79.4801 60.8199 76.8001 60.8199H54.5001L69.8801 24.9199Z" fill="#22C55E"/>
</g>
<defs>
<clipPath id="clip0_60_20">
<rect width="89.6" height="102.4" fill="white" transform="translate(0 16)"/>
</clipPath>
</defs>
</svg>
